<svg xmlns="http://www.w3.org/2000/svg" xmlns:xlink="http://www.w3.org/1999/xlink" viewBox="0 0 58 46" class="design-iconfont">
  <defs>
    <path id="w8l73htf3a" d="M0 0L58 0 58 46 0 46z"/>
  </defs>
  <g fill="none" fill-rule="evenodd">
    <path fill="#F2F2F2" d="M0 0L1460 0 1460 900 0 900z" transform="translate(-345 -203)"/>
    <path fill="#020732" d="M220 120L1220 120 1220 870 220 870z" transform="translate(-345 -203)"/>
    <path fill="#14183D" d="M240 140H416V300H240z" transform="translate(-345 -203)"/>
    <path fill="#FFF" d="M1 29.564194L29 46 57 29.564194 29.007103 13z"/>
    <path d="M29.010369,45.4743422 C28.9181195,45.4750402 28.8279988,45.4507861 28.7492319,45.4037045 L0.77633273,29.0863659 C0.616670064,28.9950561 0.519453241,28.8238503 0.522231188,28.6390907 L0.522231188,17.6091576 C0.5230013,17.4258248 0.619508511,17.2553323 0.77633273,17.1618825 L28.7492319,0.596295504 C28.9103137,0.501418961 29.1104243,0.501418961 29.2715062,0.596295504 L57.2373092,17.1633092 C57.394843,17.2574724 57.4913502,17.4272515 57.4920598,17.6105844 L57.4920598,28.6405175 C57.4913502,28.8245637 57.394843,28.9943428 57.2373092,29.0877926 L29.2644101,45.4108381 C29.1863528,45.4522128 29.0990705,45.4743422 29.010369,45.4743422" fill="#0A5FF1"/>
    <g>
      <mask id="qve7snhb6b" fill="#fff">
        <use xlink:href="#w8l73htf3a"/>
      </mask>
      <path d="M29.010369,-0.000142671493 C28.8265795,0.000570685971 28.6470477,0.0497923509 28.4880947,0.141815464 L0.508099451,16.7152494 C0.191612566,16.900009 -0.00211146916,17.2409939 8.17124112e-14,17.6090863 L8.17124112e-14,28.6397328 C0.000726978238,29.0085386 0.197289461,29.3495234 0.515195569,29.5335697 L5.07658054,32.1951064 L28.4880947,45.8580419 C28.6449189,45.9493516 28.8223219,45.9985733 29.0032729,46 C29.1849335,45.9992866 29.3623365,45.950065 29.5191607,45.8580419 L52.9235787,32.1951064 L57.4849637,29.5335697 C57.8028698,29.3495234 57.9994323,29.0085386 58.0001593,28.6397328 L58.0001593,17.6090863 C58.0022708,17.2409939 57.8085467,16.900009 57.4920598,16.7152494 L29.5326433,0.149662396 C29.3758191,0.0526457808 29.1948681,0.00128404343 29.010369,0.000570685971 L29.010369,-0.000142671493 Z M29.010369,1.04421265 L56.976172,17.6090863 L56.976172,28.6397328 L52.4154967,31.3012695 L29.010369,44.956358 L5.59885486,31.3012695 L1.03746989,28.6390194 L1.03746989,17.6090863 L29.010369,1.0434993 L29.010369,1.04421265 Z" fill="#1654E7" mask="url(#qve7snhb6b)"/>
    </g>
    <path fill="#488AF9" d="M1.03079954 17.609443L29.0036987 34.0402054 56.9765978 17.609443 29.0107948 1.04385598z"/>
    <path d="M29.0035567,34.5595459 C28.9113072,34.560243 28.8211865,34.5359889 28.7424196,34.4881939 L5.33729193,20.8316787 C5.0896374,20.6882938 5.00448398,20.3708497 5.14711596,20.121888 C5.28903833,19.8729262 5.60552521,19.78661 5.85317975,19.9299948 L29.0035567,33.4438386 L52.1475472,19.9371284 C52.3952018,19.7944569 52.710979,19.8800598 52.853611,20.1290216 C52.996243,20.3779833 52.91038,20.6954274 52.6627254,20.8388122 L29.2654035,34.4946142 C29.1845078,34.5374156 29.0950967,34.560243 29.0035567,34.5595459" fill="#7BB8FC"/>
    <path d="M17.0285729,35.4657077 C16.9313561,35.4635676 16.8369777,35.43646 16.7532435,35.386525 L15.5107132,34.6061119 C15.2687355,34.4527401 15.1963551,34.1317292 15.3482121,33.8891877 C15.500069,33.6459328 15.8193943,33.5731703 16.061372,33.7258288 L17.3039023,34.5062419 C17.5451704,34.6567603 17.61897,34.9756311 17.4692419,35.2181726 C17.4685323,35.2195993 17.4671131,35.2217394 17.4664034,35.2231661 C17.3734443,35.376538 17.2073951,35.4692745 17.0292825,35.466421 L17.0285729,35.4657077 Z M13.9857573,33.7336757 C13.8885405,33.732249 13.7941621,33.7051414 13.7104279,33.6559198 L12.4678976,32.8755067 C12.2230815,32.726415 12.1450242,32.4068309 12.2933331,32.1614359 C12.4409323,31.9153276 12.759548,31.8368582 13.0036545,31.98595 C13.0086218,31.9888034 13.0135891,31.9916568 13.0185564,31.9952236 L14.2610867,32.7756367 C14.5016451,32.9261551 14.5761544,33.2443125 14.4271359,33.4868541 C14.4257167,33.4889941 14.4242974,33.4904208 14.4228782,33.4925609 C14.3299191,33.6459328 14.1638699,33.7372425 13.9850477,33.7343891 L13.9857573,33.7336757 Z M10.9422321,32.0023572 C10.8457249,32.0002171 10.7506369,31.9731095 10.6669027,31.9231745 L9.42437235,31.1420481 C9.18523315,30.9851094 9.11782003,30.6633852 9.27393463,30.4222704 C9.42650118,30.1875758 9.73660156,30.1169534 9.97503114,30.261765 L11.2189807,31.0450315 C11.4609584,31.1969766 11.5340484,31.5172741 11.3829011,31.7598156 C11.2878131,31.9117608 11.1217639,32.0037839 10.9436513,32.0030747 L10.9422321,32.0023572 Z M26.1641159,37.062915 C26.0676087,37.060775 25.9725207,37.0336674 25.8894961,36.9837323 L24.6462561,36.2026059 C24.4049881,36.0499474 24.3318981,35.7289366 24.4844646,35.4856817 C24.6363216,35.2431401 24.9556469,35.1696643 25.1969149,35.3223228 L26.4401549,36.1034492 C26.6814229,36.2539677 26.7552226,36.5721251 26.6054945,36.8146666 C26.6047848,36.8168067 26.6033656,36.8182334 26.6019464,36.8203735 C26.5068584,36.9708919 26.3422285,37.0622017 26.1641159,37.062915 L26.1641159,37.062915 Z M23.1220099,35.3315965 C23.0255027,35.3301697 22.9304147,35.3037755 22.8466805,35.2538405 L21.6041501,34.4734274 C21.3621725,34.3200556 21.2897921,33.9997581 21.441649,33.7565032 C21.5942156,33.5132483 21.9135409,33.4404858 22.1548089,33.5931443 L23.3973393,34.3742707 C23.6386073,34.5240758 23.7131166,34.8422332 23.5633885,35.0847748 C23.5619692,35.0869149 23.5612596,35.0890549 23.5598404,35.091195 C23.4640428,35.2410001 23.2994128,35.3315965 23.1227195,35.3315965 L23.1220099,35.3315965 Z M20.0791943,33.6002779 C19.9819774,33.5981378 19.8875991,33.5710302 19.8038649,33.5210952 L18.5613345,32.7399688 C18.3257434,32.5780367 18.2654264,32.2541724 18.4272179,32.0173377 C18.5797844,31.7933434 18.878531,31.7248611 19.1127029,31.8611124 L20.3552333,32.6415255 C20.5965013,32.7920439 20.6710106,33.1109147 20.5212825,33.3527429 C20.5198632,33.3548829 20.5191536,33.357023 20.5177344,33.3584497 C20.4219368,33.5089681 20.2565972,33.6002779 20.0791943,33.5995645 L20.0791943,33.6002779 Z M17.0292825,31.868246 C16.9327753,31.8668193 16.8376873,31.8397117 16.7539531,31.7897767 L15.5114228,31.0093636 C15.2722836,30.852425 15.2048705,30.5299874 15.3609851,30.2895859 C15.5135516,30.0548913 15.823652,29.9842689 16.0620816,30.1290805 L17.3046119,30.9094935 C17.54588,31.060012 17.6203892,31.3788828 17.4706611,31.6214243 C17.4692419,31.6235644 17.4678227,31.6249911 17.4671131,31.6271312 C17.3741539,31.7797897 17.2073951,31.8710994 17.0292825,31.8675326 L17.0292825,31.868246 Z M13.9864669,30.1290805 C13.8892501,30.1269404 13.7941621,30.0998328 13.7111375,30.0498978 L12.4686072,29.2687714 C12.2266295,29.1161129 12.1542491,28.795102 12.3061061,28.5525605 C12.457963,28.3093056 12.7772883,28.2358298 13.019266,28.3892016 L14.2617963,29.1696147 C14.5030644,29.3201331 14.576864,29.6382905 14.4271359,29.8808321 C14.4264263,29.8829722 14.4250071,29.8843989 14.4235878,29.8865389 C14.3313383,30.0399108 14.1645795,30.1319339 13.9864669,30.1290805 L13.9864669,30.1290805 Z M10.9436513,28.3977619 C10.8464345,28.3956218 10.7513465,28.3678009 10.6676123,28.3178659 L9.42508196,27.5374528 C9.18097548,27.3890745 9.10291818,27.068777 9.25122705,26.823382 C9.39882632,26.577987 9.71673243,26.4988044 9.96154852,26.6478961 C9.9665158,26.6507495 9.97148308,26.6543163 9.97645036,26.6571697 L11.2189807,27.4390095 C11.4609584,27.5909546 11.5340484,27.9112521 11.3829011,28.1537937 C11.2878131,28.3057388 11.1217639,28.3977619 10.9436513,28.3977619 Z" fill="#02E2DF"/>
    <path d="M29.017749,7.03398993 L24.5415174,10.4623859 L26.864077,10.4695195 L26.8853654,14.2517407 L31.2203842,14.2517407 L31.1990958,10.4695195 L33.5216554,10.4695195 L29.017749,7.03398993 M31.2558648,19.8373297 L26.9272325,19.8444633 L26.9485208,23.6273979 L24.6259612,23.6273979 L29.1305773,27.0622141 L33.5997127,23.6273979 L31.2842492,23.6345315 L31.2558648,19.8373297 M24.7316934,15.7861727 L18.2366161,15.7790391 L18.2224239,14.4293668 L12.348257,17.048102 L18.2579045,19.660417 L18.2508084,18.3043245 L24.7387895,18.3043245 L24.7316934,15.7847459 M45.7929731,17.0488154 L39.8904217,14.4300801 L39.8975179,15.7854593 L33.3953445,15.7854593 L33.4159232,18.3050379 L39.904614,18.3050379 L39.9117101,19.6611304 L45.7922635,17.0488154" fill="#F7FEFE"/>
  </g>
</svg>
