<svg xmlns="http://www.w3.org/2000/svg" xmlns:xlink="http://www.w3.org/1999/xlink" viewBox="0 0 49 60" class="design-iconfont">
  <defs>
    <path id="7xbtiz9twa" d="M0 18.0330568L16.949511 28 17 9.9669432 0.0504890163 0"/>
  </defs>
  <g fill="none" fill-rule="evenodd">
    <path fill="#F2F2F2" d="M0 0L1460 0 1460 900 0 900z" transform="translate(-257 -193)"/>
    <path fill="#020732" d="M220 120L1220 120 1220 870 220 870z" transform="translate(-257 -193)"/>
    <path fill="#14183D" d="M240 140H416V300H240z" transform="translate(-257 -193)"/>
    <path d="M36.7803747,50.9986205 C36.7717094,51.1418127 36.7543788,51.2841319 36.7361816,51.4177198 C36.7257833,51.4936815 36.7110522,51.567897 36.6919885,51.6412394 C36.6651261,51.7486336 36.6391301,51.8560278 36.6027358,51.9625488 C36.5767399,52.0428762 36.5498774,52.1144723 36.523015,52.1860684 C36.484021,52.2838583 36.439828,52.3790287 36.3904357,52.4715798 C36.3549079,52.5423028 36.3193801,52.613899 36.275187,52.6854951 C36.2136633,52.784158 36.1512731,52.8819479 36.0802175,52.9797377 C36.0360244,53.0426026 35.9909648,53.1045944 35.9389729,53.1674593 C35.8055271,53.3403377 35.6573502,53.5018656 35.4961754,53.6485503 L35.4779783,53.6668859 C35.1972222,53.9227111 34.8922032,54.1497232 34.5663874,54.3444298 C34.5221943,54.3714966 34.4771347,54.4064215 34.4242763,54.4343615 C34.1556516,54.5915237 33.8783616,54.7320966 33.5924063,54.8534608 C33.4944883,54.8979901 33.3879049,54.9337881 33.2908534,54.9695862 C33.0958839,55.0499136 32.9017809,55.1206366 32.6955465,55.1835015 C32.2336853,55.32844 31.7648919,55.4471848 31.2900328,55.5397359 C31.1314576,55.5659296 30.9806812,55.5929964 30.8212394,55.6200632 C30.6089393,55.6558613 30.3957726,55.682055 30.1748071,55.7099949 L29.5898985,55.7632555 C29.3957955,55.7807179 29.2094913,55.7894492 29.0145218,55.7990535 C28.8022216,55.8077848 28.5899215,55.816516 28.3767548,55.816516 C28.1817853,55.816516 27.9781504,55.8261204 27.7840474,55.816516 C27.5708807,55.816516 27.3585806,55.8077848 27.1462804,55.7990535 C26.9157831,55.7894492 26.6939511,55.7807179 26.4643204,55.7632555 C26.2606855,55.7449199 26.0570507,55.7274574 25.8620811,55.7099949 C25.5882573,55.6829281 25.3135669,55.6558613 25.0302112,55.611332 C24.8439069,55.5851383 24.6489374,55.5580714 24.4634997,55.5310046 C24.0917578,55.4777441 23.7191494,55.406148 23.3387422,55.3345518 C23.1888323,55.3083581 23.0467212,55.2812913 22.8959447,55.2446201 C22.294572,55.1197634 21.6923328,54.9687131 21.0900936,54.7993271 C20.9835103,54.7722603 20.8777935,54.7364622 20.7712101,54.7006642 C19.9653361,54.4614283 19.159462,54.1916331 18.3631198,53.8799281 C18.2305405,53.8266675 18.1066266,53.7725339 17.9731808,53.7192733 C17.5572458,53.5498874 17.1413108,53.3621658 16.7340411,53.1753174 C16.5832647,53.1037213 16.4246894,53.0321251 16.273913,52.960529 C15.7513947,52.7020844 15.2288763,52.4340355 14.7245552,52.1397929 C10.5972669,49.7404495 8.36765159,46.8050082 8.37634732,44.3253375 L8.36765159,46.3684465 C8.35815016,48.8489904 10.5894681,51.7835585 14.7158898,54.183775 C15.2210776,54.4780177 15.7427294,54.7451935 16.2652477,55.0045111 C16.4151576,55.0761073 16.565934,55.1477034 16.7253758,55.2184264 C17.1326455,55.406148 17.5485805,55.5929964 17.965382,55.7632555 C18.0624335,55.7981804 18.1508197,55.8531872 18.2478712,55.8881121 C18.2825324,55.9038284 18.3180602,55.9160521 18.3544545,55.9239102 C19.1421314,56.2356153 19.9480055,56.5036642 20.7625448,56.7446463 C20.8240685,56.7621088 20.8777935,56.7891756 20.9410503,56.8066381 C20.9852433,56.8249737 21.0389683,56.8249737 21.0831614,56.8424361 C21.6845341,57.0118221 22.2867733,57.1637456 22.8890125,57.2886022 C22.9245403,57.2973335 22.9687333,57.3060647 23.0042611,57.314796 C23.1186432,57.3418628 23.2252266,57.350594 23.3404752,57.3776608 C23.7122171,57.4483838 24.0848256,57.51998 24.4557009,57.5732405 C24.5449537,57.5915761 24.6342064,57.6099117 24.721726,57.6177698 C24.8274428,57.6361054 24.9253609,57.6361054 25.0310777,57.6535679 C25.3057681,57.6893659 25.5891238,57.725164 25.8638142,57.7522308 C25.9790629,57.7609621 26.1021103,57.7784245 26.2182255,57.7967601 C26.3066117,57.8054914 26.3863325,57.8054914 26.4747187,57.8142226 C26.7043495,57.8325582 26.9348468,57.8412894 27.1566788,57.8500207 C27.2892581,57.859625 27.4218374,57.8683563 27.5544167,57.8683563 L28.7770922,57.8683563 C28.8568131,57.8683563 28.9356674,57.859625 29.0249202,57.8500207 C29.2198897,57.8412894 29.4139927,57.823827 29.6002969,57.8142226 C29.7155456,57.8054914 29.838593,57.8054914 29.9633735,57.7880289 C30.0430944,57.7792977 30.1141499,57.7618352 30.1930043,57.7522308 C30.4148363,57.7260371 30.6271364,57.6989703 30.8394366,57.6631722 C30.9546852,57.6448366 31.0699339,57.6361054 31.1851825,57.6177698 C31.2293756,57.6090386 31.2735687,57.5915761 31.3177618,57.5828449 C31.7934875,57.4911669 32.2631474,57.3724221 32.7250085,57.2257374 C32.7432057,57.2170061 32.7692016,57.2170061 32.7960641,57.2082749 C32.9745695,57.14541 33.1418101,57.0738139 33.3185824,57.0118221 C33.4165005,56.976024 33.5222173,56.940226 33.6192688,56.8956967 C33.9043576,56.7717131 34.1825141,56.6320134 34.4520053,56.4765974 L34.5317262,56.4233368 C34.5516564,56.4111131 34.568987,56.39627 34.5845846,56.3779344 C34.9095338,56.1832279 35.2154193,55.9562158 35.497042,55.7003906 L35.5143726,55.6829281 C35.6755474,55.5353702 35.8237242,55.3738424 35.9571701,55.2009639 C35.9745007,55.1852477 35.9892317,55.1669121 36.0013631,55.1477034 C36.0368909,55.102301 36.0637534,55.0490404 36.0992812,55.0045111 C36.1703367,54.9058482 36.2318605,54.8080583 36.2942507,54.7102685 L36.3471091,54.6299412 C36.371372,54.5871581 36.3921687,54.5426288 36.4086328,54.4963533 C36.4528259,54.3976903 36.5065509,54.3086317 36.5420786,54.2099687 L36.594937,54.1034477 C36.6131342,54.0676496 36.6131342,54.0231203 36.6304648,53.978591 C36.6651261,53.8711968 36.6919885,53.7638026 36.7197175,53.6572816 C36.7283829,53.6127523 36.7457135,53.5673498 36.7543788,53.5228205 C36.7621776,53.4940075 36.7647772,53.4634481 36.7639106,53.4328888 C36.787307,53.2949353 36.802038,53.1543624 36.8081037,53.0137895 C36.8081037,52.9692602 36.8254344,52.9238578 36.8254344,52.8802016 L36.8254344,52.7815387 L36.8349662,50.7384297 C36.8029045,50.8213764 36.7847074,50.9086887 36.7812413,50.9977473 L36.7803747,50.9986205 Z" fill="#0A5FF1"/>
    <path d="M21.2246659,56.2545621 C21.8199729,56.4152168 22.4022819,56.5671403 22.9863239,56.6919969 L23.4291214,56.7810555 C23.792198,56.8526517 24.1552746,56.9155166 24.5183512,56.9687771 L25.0763973,57.0491045 C25.3502211,57.0849025 25.6162462,57.1119694 25.8814048,57.1390362 L26.4767118,57.1922967 C26.6985437,57.2097592 26.9195092,57.2184904 27.1413412,57.2280948 L27.5399456,57.2455573 L27.760911,57.2455573 C27.9558806,57.2542885 28.1413183,57.2455573 28.3362878,57.2455573 L28.9558576,57.2280948 C29.1421618,57.2184904 29.3284661,57.2097592 29.5139037,57.1922967 L30.0719499,57.1390362 C30.2929153,57.1119694 30.4974167,57.0849025 30.700185,57.0491045 L31.1611796,56.9687771 C31.6091763,56.8840841 32.0528403,56.7740706 32.4887055,56.6387364 C32.6273505,56.5985727 32.7633959,56.5514241 32.8959752,56.4964173 L33.3301073,56.3270313 C33.5935328,56.2135253 33.8508926,56.0851761 34.1004536,55.942857 L34.2157022,55.872134 C34.5129224,55.6948899 34.791079,55.4888328 35.0475722,55.2565819 C35.1896833,55.122994 35.3231291,54.9798017 35.4461766,54.8278783 L35.5614252,54.6672235 C35.622949,54.5868962 35.6766739,54.4978376 35.7295323,54.4175102 L35.8274503,54.2376468 C35.8352491,54.2149455 35.8473805,54.1939906 35.8621116,54.1747819 C35.5622918,54.4480695 35.236476,54.6899247 34.8881305,54.8977281 L34.7382206,54.995518 C34.4548648,55.1561727 34.153312,55.3080962 33.8439603,55.4512884 C33.7694386,55.4862134 33.6923174,55.5158996 33.613463,55.540347 C33.3127767,55.6564725 33.1082753,55.7367998 32.8881764,55.808396 C32.4020523,55.9594463 31.9081295,56.084303 31.4090076,56.1829659 C31.2504323,56.2091596 31.0823253,56.2362265 30.9133517,56.2632933 C30.6837209,56.2990914 30.4618889,56.3348894 30.2409234,56.3610831 C30.0372886,56.3794187 29.8336538,56.4056124 29.6300189,56.4143437 C29.4263841,56.4326793 29.2314146,56.4414105 29.0277797,56.458873 C28.8154796,56.4676042 28.5945141,56.4763354 28.3735486,56.4763354 C28.1699138,56.4763354 27.9662789,56.4859398 27.7626441,56.4763354 C27.550344,56.4763354 27.3380438,56.4676042 27.1248771,56.458873 C26.8770492,56.4501417 26.6474184,56.4414105 26.4082558,56.423948 L25.7886859,56.3698144 C25.5053302,56.3436207 25.2219745,56.3078226 24.9377523,56.2720245 L24.3537102,56.1916972 C23.9724365,56.1288323 23.5920293,56.0668405 23.2029567,55.9865132 L22.7506274,55.8965814 C22.1397229,55.7621204 21.5201531,55.61107 20.9092486,55.4416841 L20.5903651,55.3430211 C19.7316326,55.0933078 18.9084279,54.8069233 18.1294163,54.5039494 L17.730812,54.3432947 C17.3053451,54.1643044 16.8798783,53.9870603 16.4648098,53.7906075 L15.9951499,53.567961 C15.455301,53.2999121 14.9249838,53.023132 14.4102643,52.7201581 C12.7395921,51.7798041 11.2248955,50.5818786 9.92076594,49.1700379 C10.9320079,50.739914 12.7014647,52.3281256 15.0298341,53.6753552 C15.5168247,53.9599935 16.0289446,54.2193112 16.5436642,54.4777557 L16.995127,54.691671 C17.3937313,54.8793925 17.801001,55.0575097 18.2074042,55.2277688 L18.4820946,55.3438942 C19.3321617,55.6730618 20.1189721,55.9437301 20.9430433,56.1820928 L21.0582919,56.2266221 L21.0851544,56.8858304 L21.2246659,56.2545621 Z M27.927285,58.5011089 L27.5018182,58.5011089 L27.0945485,58.4749152 C26.8640512,58.4653108 26.6335539,58.4565796 26.3943913,58.4391171 L25.7748214,58.3858566 C25.4923323,58.3587897 25.20811,58.3229917 24.9247543,58.2871936 L24.4377638,58.2252018 C23.9594385,58.1536057 23.5790313,58.0820096 23.1890922,58.0016822 L22.7289642,57.9117505 C22.1180596,57.7868938 21.5062886,57.6262391 20.8953841,57.4568531 L20.6128949,57.3765258 C19.7177681,57.1084769 18.8858981,56.8325698 18.1155518,56.5191185 L17.8226643,56.4038662 C17.2914806,56.1803466 16.8660138,55.9934981 16.4509453,55.7970454 L15.9812854,55.5735257 C15.4414365,55.3063499 14.9111193,55.0295698 14.3963998,54.7353272 C10.2188527,52.3001857 7.73104151,49.1787691 7.73795931,46.3777889 L7.74663907,44.3434111 L8.98924486,44.3434111 C8.98057955,46.6545691 11.3002837,49.4363406 15.0281011,51.6147837 C15.5150916,51.899422 16.0272116,52.1674709 16.5419311,52.4171842 L16.9223383,52.5970477 C17.3919983,52.8205673 17.7992679,52.9890801 18.2065376,53.1593392 L18.5869448,53.3191208 C19.3312952,53.6133634 20.1181055,53.8814124 20.9421767,54.1223945 L21.2523949,54.2123262 C21.8477019,54.3817121 22.4300109,54.5240313 23.0227182,54.6488879 L23.4568504,54.7388197 C23.819927,54.8104158 24.1916689,54.8724076 24.5547455,54.9352724 C24.7410497,54.9614661 24.9264874,54.988533 25.1032597,55.0155998 C25.3779501,55.0513979 25.6439752,55.0863228 25.9177991,55.1055315 L26.5131061,55.1587921 C26.7349381,55.1762545 26.9559035,55.1849858 27.176869,55.1945901 C27.3900357,55.2033214 27.5936705,55.2120526 27.7973054,55.2120526 C27.9914084,55.2207838 28.1777126,55.2120526 28.3726821,55.2120526 C28.5763169,55.2120526 28.7799518,55.2033214 28.9922519,55.1945901 C29.1785561,55.1849858 29.3639938,55.1675233 29.550298,55.1587921 L30.1170095,55.1055315 C30.3293096,55.0784647 30.5329445,55.0513979 30.7452446,55.0155998 L31.1975739,54.9352724 C31.6499032,54.8497063 32.0961668,54.7362003 32.5346316,54.5956274 C32.7209358,54.5336356 32.9072401,54.4620395 33.0840124,54.3904434 L33.3673681,54.2839223 C33.6307936,54.1695431 33.8881534,54.0420671 34.1377144,53.899748 L34.5891772,54.3546453 L34.2616284,53.8194206 C34.5553825,53.6482884 34.8283398,53.4448506 35.0761677,53.2125998 C35.2191454,53.0790119 35.3517247,52.9358196 35.4747721,52.7838961 L35.5458277,52.6861063 C35.6220824,52.5856971 35.693138,52.4817954 35.7581278,52.3735281 C35.7919225,52.3193944 35.8213846,52.2626414 35.8473805,52.2041421 C35.8915736,52.1142104 35.9271014,52.0347561 35.9626292,51.9544288 C35.9886251,51.892437 36.0068223,51.8295721 36.0336848,51.7675803 L36.1134056,51.4995314 L36.1575987,51.312683 C36.1749294,51.1965576 36.1835947,51.0804321 36.19226,50.9643067 L36.2104571,50.7678539 L37.4495968,50.7678539 L37.4409315,52.8022317 C37.4443976,52.8886709 37.4383319,52.9751102 37.4236009,53.0606763 C37.412336,53.2318085 37.3915392,53.4020676 37.3612106,53.5697073 L37.3083522,53.8098162 C37.2762906,53.942531 37.2381632,54.0734995 37.1931036,54.2018487 C37.1844382,54.246378 37.1671076,54.2917804 37.1575758,54.3363097 L37.0960521,54.4698976 C37.051859,54.5772918 36.998134,54.6934172 36.9461422,54.7990652 C36.9106144,54.8706613 36.8924172,54.9151906 36.8750866,54.9597199 L36.804031,55.0671141 C36.7425073,55.1649039 36.6627864,55.2810294 36.582199,55.3962817 C36.5501374,55.4521616 36.5146096,55.5054221 36.4764822,55.5569364 C36.3057756,55.773471 36.1194714,55.9760357 35.9184361,56.1637572 C35.6012857,56.4545074 35.2581393,56.7146982 34.8915966,56.939964 L34.4314685,56.4937979 L34.7408202,57.0377539 C34.4574644,57.1984086 34.1567781,57.3503321 33.8465599,57.4926512 C33.7850362,57.519718 33.7139806,57.5467849 33.6342598,57.5729786 L33.3769,57.6716415 C33.2443207,57.7249021 33.1117414,57.7790357 32.9696303,57.8226919 C32.4609765,57.9833466 31.9436573,58.1143152 31.4202725,58.2155975 C31.3743463,58.2304406 31.3266871,58.2426643 31.2790279,58.2513955 C31.2001735,58.2679849 31.1204526,58.2802086 31.0407318,58.2863205 C30.7045177,58.3404541 30.4740203,58.3666478 30.2443896,58.3937147 L29.6421504,58.4469752 C29.4471808,58.4653108 29.243546,58.474042 29.0399111,58.4915045 L28.7834179,58.5098401 L28.3761482,58.5098401 C28.2106408,58.5011089 28.0685296,58.5011089 27.927285,58.5011089 L27.927285,58.5011089 Z" fill="#1654E7"/>
    <path d="M30.4408322,42.9520015 C36.9840096,46.7614394 38.7629982,51.9085025 34.417344,54.4510381 C30.0708234,56.9935738 21.2512684,55.9676537 14.7089576,52.1590889 C8.17444554,48.3583823 6.38592507,43.2113192 10.7324458,40.6687835 C15.0789664,38.1262478 23.9063201,39.1416905 30.4408322,42.9520015" fill="#488AF9"/>
    <path d="M17.0985908,39.883147 C14.7078311,39.883147 12.5744312,40.3118506 11.042404,41.2111678 C9.67068503,42.0144415 8.97052779,43.0752865 8.97052779,44.3692556 C8.97052779,46.7153385 11.2287082,49.4281332 15.009384,51.6222926 C21.3671237,55.3243363 29.9275857,56.3502564 34.0982006,53.9063837 C35.4525889,53.1127144 36.1700768,52.0239294 36.1700768,50.748296 C36.1700768,48.4022131 33.9118964,45.6902914 30.1312206,43.4865277 C26.1122487,41.1491761 21.2154807,39.8822738 17.0985908,39.8822738 L17.0985908,39.883147 Z M28.0775416,56.4585237 C23.2769585,56.3869276 18.5725604,55.0955779 14.4002125,52.7032195 C10.2295977,50.2768093 7.74005343,47.1632508 7.74005343,44.3710018 C7.74005343,42.6308667 8.66984145,41.1587804 10.4228341,40.1328603 C14.9296631,37.4925348 24.0577032,38.5097237 30.7507904,42.4082202 C34.9205387,44.8346304 37.410083,47.9481889 37.410083,50.7491691 C37.410083,52.4980355 36.480295,53.9605174 34.7273023,54.9960418 C33.0341002,55.9765595 30.697932,56.4585237 28.0775416,56.4585237 L28.0775416,56.4585237 Z" fill="#02E2DF"/>
    <path d="M23.8899427,46.2258654 C25.7850465,47.3321129 26.298033,48.8216616 25.0406962,49.5620704 C23.7842259,50.3024791 21.2253592,49.9995052 19.3302553,48.9028621 C17.4351515,47.7966146 16.922165,46.3070659 18.1795019,45.5762615 C19.4368387,44.8253753 21.9948389,45.1196179 23.8899427,46.2258654" fill="#FFF"/>
    <path d="M20.0298927,45.7812709 C19.4952429,45.7594428 18.9631927,45.8703295 18.4805348,46.1025804 C18.0992611,46.3261 18.0992611,46.5574777 18.0992611,46.6290738 C18.0992611,47.0123751 18.4978654,47.690792 19.6304218,48.3508734 C21.4986631,49.4396584 23.7655088,49.5723732 24.7212928,49.0100817 C25.1025665,48.786562 25.1025665,48.5551843 25.1025665,48.4739838 C25.1025665,48.0906826 24.7039621,47.4131388 23.5714058,46.7530574 C22.4908414,46.1340128 21.2724984,45.7996065 20.0298927,45.7812709 Z M23.1901321,50.5808309 C21.7265608,50.5581297 20.2915851,50.1626047 19.0203838,49.429181 C17.6573301,48.6355117 16.8687867,47.6183228 16.8687867,46.6282007 C16.8800516,45.9454181 17.2639249,45.3237542 17.8678972,45.0137954 C19.3202036,44.1659924 22.1000358,44.4515038 24.1987744,45.6730036 C25.5618281,46.4666729 26.3503715,47.492593 26.3503715,48.4739838 C26.3391066,49.1567664 25.9552333,49.7784304 25.351261,50.0883892 C24.6866315,50.4420042 23.9414147,50.6122633 23.1901321,50.5808309 L23.1901321,50.5808309 Z" fill="#1654E7"/>
    <path fill="#0A5FF1" d="M44.8814886 26.3851813L41.3755032 59.3665489 0.62253916 35.6638649 4.12765801 2.68162424z"/>
    <path d="M1.28621543,35.3243945 L40.8624301,58.3495346 L44.2193721,26.725001 L4.64229091,3.69898776 L1.28621543,35.3243945 Z M41.3762831,59.9997381 C41.2679667,59.9997381 41.1613834,59.9717981 41.0669315,59.9194107 L0.312234324,36.2071224 C0.0999341707,36.0840119 -0.0205136712,35.8465223 0.00288267214,35.6011746 L3.50886806,2.61107586 C3.54526237,2.26793832 3.85201443,2.01909812 4.1925612,2.05664243 C4.27921433,2.06624679 4.36326786,2.09418674 4.43778954,2.13784292 L45.1916201,25.8414 C45.4039203,25.9645104 45.5252347,26.202 45.5018383,26.4482209 L41.9958529,59.4295884 C41.9741897,59.6400112 41.8476761,59.8259865 41.6587723,59.9202838 C41.5738522,59.9717981 41.4759342,59.9997381 41.3762831,59.9997381 L41.3762831,59.9997381 Z" fill="#1654E7"/>
    <path fill="#488AF9" d="M44.8817486 26.3856179L48.3790686 24.3425089 44.8730833 57.3238764 41.3757632 59.3669855z"/>
    <path d="M45.4663972,26.7689191 L42.1285189,58.2066043 L44.2983131,56.9397021 L47.6283926,25.5020169 L45.4663972,26.7689191 Z M41.3755032,60 C41.2567884,59.9991269 41.1398067,59.9650751 41.0384226,59.901337 C40.843453,59.773861 40.7377362,59.5459758 40.7645987,59.3128518 L44.2705841,26.3314843 C44.2896478,26.1341583 44.4022968,25.9586605 44.572137,25.8591244 L48.069457,23.8072842 C48.3640776,23.6352788 48.7410187,23.7365612 48.9117254,24.0334232 C48.9775818,24.1486755 49.0053108,24.2813902 48.9905797,24.4132319 L45.4845943,57.3945994 C45.4655307,57.5919254 45.3537481,57.7682963 45.183908,57.8678324 L41.6865879,59.9196726 C41.5895364,59.9685676 41.4838196,59.9956344 41.3755032,60 L41.3755032,60 Z" fill="#1654E7"/>
    <path fill="#488AF9" d="M4.12843789 2.68197349L7.62575796 0.630133239 48.378722 24.3424216 44.881402 26.3855306z"/>
    <path d="M5.36757756,2.68223543 L44.881402,25.6707044 L47.1395824,24.3505416 L7.62489143,1.35246832 L5.36757756,2.68223543 Z M44.881402,27.0100758 C44.7730855,27.0092027 44.6665022,26.9821359 44.5720503,26.9297485 L3.81821971,3.2270645 C3.52013296,3.0524398 3.41788228,2.66739233 3.59118852,2.36703784 C3.64577999,2.2727405 3.7237678,2.19328626 3.81821971,2.13827948 L7.31553978,0.0864392277 C7.50617665,-0.0288130759 7.74447274,-0.0288130759 7.93510961,0.0864392277 L48.6889402,23.7899963 C48.987027,23.9637479 49.0884111,24.3487954 48.9159714,24.6491499 C48.8613799,24.7443203 48.7825256,24.8229014 48.6889402,24.8779082 L45.1916201,26.9297485 C45.0963017,26.9821359 44.9897184,27.0100758 44.881402,27.0100758 L44.881402,27.0100758 Z" fill="#1654E7"/>
    <path fill="#FFF" d="M40.6059368 28.2148117L37.8876283 53.7912187 4.32254089 33.7801009 7.04171591 8.20369389z"/>
    <path d="M4.9859572,33.4422021 L37.3812275,52.7565673 L39.9487595,28.5448524 L7.55435579,9.23921838 L4.9859572,33.4422021 Z M37.8872817,54.4146289 C37.7746327,54.4163751 37.6645832,54.3849427 37.5683982,54.3255703 L4.00331078,34.3144525 C3.79187716,34.1913421 3.67316238,33.9529794 3.70262444,33.7085048 L6.42093293,8.13122464 C6.45819377,7.7880871 6.7640793,7.54012003 7.10462608,7.57766434 C7.1912792,7.58639557 7.27533273,7.61433552 7.35072095,7.65886482 L40.9149419,27.6691095 C41.127242,27.793093 41.2450903,28.0314557 41.2164947,28.2759303 L38.4981863,53.8523374 C38.4799891,54.0645064 38.3517425,54.2513548 38.1619721,54.3430328 C38.0787851,54.3936739 37.9834667,54.4189945 37.8872817,54.4146289 L37.8872817,54.4146289 Z" fill="#1654E7"/>
    <g transform="translate(14 17)">
      <mask id="lywnk4k3nb" fill="#fff">
        <use xlink:href="#7xbtiz9twa"/>
      </mask>
      <path d="M6.21276051,3.62256982 C4.08612832,2.37249066 2.35470326,3.57912735 2.34683586,6.31600279 C2.33816376,9.0537648 4.05827231,12.2871256 6.1849045,13.5372047 C8.31066619,14.7872839 10.0420912,13.5806472 10.0508292,10.8464315 C10.0595013,8.11132924 8.3402632,4.87530872 6.21276051,3.62256982 M6.182293,14.4406307 C5.75748886,14.1915015 5.41102975,14.3918688 5.41015925,14.8892407 L5.40667725,15.7908935 L5.40667725,15.7997594 C5.43714476,16.3494396 5.72266885,16.8503578 6.1761995,17.1500222 L6.1796815,17.1526819 C6.60535614,17.400038 6.94833325,17.1961244 6.94833325,16.6969793 L6.95094475,15.7953265 C6.92221824,15.2447597 6.63669415,14.7420683 6.1831635,14.4415173 M8.41947872,15.1871319 C8.46822674,15.3874992 8.49347125,15.593186 8.49434175,15.7988728 L8.48911875,17.6021785 C8.48650725,18.5969223 7.79533002,19.0003166 6.94311025,18.4993984 L5.40232475,17.5933126 C4.49526345,16.9922108 3.92421527,15.9850548 3.86676225,14.8848078 L3.87198525,13.0815021 C3.86937375,12.9050725 3.89635926,12.7295295 3.95120078,12.5628523 L3.95120078,12.5601925 C1.64959803,11.9298334 0.0147985048,12.768539 0.00870500282,14.8732822 L0.00522300169,16.2297511 C0.06180552,17.3308847 0.632853705,18.3380407 1.5407855,18.9391425 L10.786369,24.3765436 C11.6368478,24.8774618 12.329766,24.4749541 12.3323775,23.4793237 L12.3358766,22.1228548 C12.341953,20.0181116 10.716729,17.2617314 8.41860822,15.1880185 M11.8074658,9.63092901 C12.1617594,10.599962 12.3497875,11.623963 12.362845,12.6577164 C12.3584925,14.2845925 11.7917968,15.4114369 10.8986635,15.8804382 C13.1201802,17.9798619 14.6557427,20.5997087 14.6505197,22.5838769 L14.6461672,23.9403458 C14.6574837,24.2196188 14.5826207,24.4953454 14.4328947,24.7285162 L16.1843412,25.7596099 C16.6100159,26.0096257 16.9556045,25.8083719 16.9573455,25.3083402 L16.9608408,23.9430055 C16.9660505,22.1529985 15.4313585,19.7308594 13.2995033,17.9355329 C14.1229966,17.6917231 14.6661887,16.7723387 14.6705412,15.368881 C14.6766347,13.2198088 13.4109273,10.7134444 11.8083363,9.63092901" fill="#488AF9" mask="url(#lywnk4k3nb)"/>
    </g>
  </g>
</svg>
